<svg xmlns="http://www.w3.org/2000/svg"  viewBox="0 0 48 48" width="50px" height="50px" baseProfile="basic"><path fill="#827717" d="M14.125,12.375c0,0-6.883,5.534-8.912,9.22C5.066,21.861,5,22.159,5,22.462v0	c0,0.832,0.562,1.56,1.367,1.77l4.383,1.143c0,0-1.125,1.625-0.875,3.125l-1-2.125l-2,0.625c0,0,1.25,2.875,3.5,3.625	c0,0,0.625-2.125,2.75-3.625L12.5,23.75L7.875,22.5c0,0,4.75-3.625,5.875-5.5L14.125,12.375z"/><path fill="#827717" d="M38,24c0,0,2.25,2.25,0.625,4.5l2.625-1.125L41.125,28.5l1.75-0.375l-0.5,1.75L39.5,30.5l4.25,2.125	l-1.5,0.75l-0.532-0.118c-1.959-0.435-3.737-1.566-4.8-3.269c-0.458-0.734-0.813-1.606-0.917-2.613"/><path fill="#827717" d="M20,7c0,0-2-2-2-4c0,0-2,2-1,5L20,7z"/><path fill="#827717" d="M16,30l-3,5l6,4c0,0-1,1-3,1l-1.244-0.415c-1.14-0.38-2.372-0.38-3.512,0h0	c-0.818,0.273-1.561,0.732-2.171,1.342L8,42h4l-0.106,0.211C11.306,43.388,11,44.685,11,46v0l6.547-2.182	c1.628-0.543,3.177-1.3,4.605-2.252h0C22.682,41.212,23,40.617,23,39.98v0c0-0.615-0.297-1.193-0.798-1.55L16,34l3-3L16,30z"/><path fill="#827717" d="M34,30l3,5l-5.125,4H34l2.081-0.52c1.238-0.31,2.547-0.166,3.688,0.405L40,39l-1,1l2,2h-3l2,2h0	c-2.645,0-5.269-0.476-7.745-1.404l-3.153-1.183C28.439,41.165,28,40.531,28,39.824l0,0c0-0.52,0.239-1.012,0.647-1.334l5.228-4.115	L31,31L34,30z"/><path fill="#cddc39" d="M39,20c0,7.18-6,13-14,13s-14-5.82-14-13S17,5,25,5S39,12.82,39,20z"/><circle cx="24" cy="15" r="6" fill="#fff"/><circle cx="24.5" cy="16.5" r="2.5" fill="#827717"/><circle cx="24.5" cy="16.5" r="1.5" fill="#424242"/><path fill="#424242" d="M34,17c0,0-4,11-17,6C20,28,34,30,34,17z"/><path fill="#827717" d="M33,10c0,0,3-1,4-3c0,0,1,3-1,5C36,12,34,12,33,10z"/><path fill="#827717" d="M38.75,22.375c-0.17,0.89-0.428,1.749-0.777,2.565c2.089-0.223,4.311-1.092,5.887-1.828	c1.18-0.551,1.507-2.078,0.683-3.086C40.882,15.553,37,14,37,14v4c2,2,5,3,5,3C41,21.5,39.75,22,38.75,22.375z"/></svg>